<svg width="40" height="40" viewBox="0 0 40 40" fill="none" xmlns="http://www.w3.org/2000/svg">
<g id="material-symbols:key">
<path id="Vector" d="M11.667 25C13.0559 25 14.2364 24.5139 15.2087 23.5417C16.1809 22.5694 16.667 21.3889 16.667 20C16.667 18.6111 16.1809 17.4306 15.2087 16.4583C14.2364 15.4861 13.0559 15 11.667 15C10.2781 15 9.09755 15.4861 8.12532 16.4583C7.1531 17.4306 6.66699 18.6111 6.66699 20C6.66699 21.3889 7.1531 22.5694 8.12532 23.5417C9.09755 24.5139 10.2781 25 11.667 25ZM11.667 30C8.88921 30 6.5281 29.0278 4.58366 27.0833C2.63921 25.1389 1.66699 22.7778 1.66699 20C1.66699 17.2222 2.63921 14.8611 4.58366 12.9167C6.5281 10.9722 8.88921 10 11.667 10C13.917 10 15.8825 10.6389 17.5637 11.9167C19.2448 13.1944 20.4181 14.7778 21.0837 16.6667H35.042L38.3337 19.9583L32.5003 26.625L28.3337 23.3333L25.0003 26.6667L21.667 23.3333H21.0837C20.3892 25.3333 19.1809 26.9444 17.4587 28.1667C15.7364 29.3889 13.8059 30 11.667 30Z" fill="#257180"/>
</g>
</svg>
