<svg width="121" height="120" viewBox="0 0 121 120" fill="none" xmlns="http://www.w3.org/2000/svg">
<g id="ion:book">
<path id="Vector" d="M47.9 17.3438C39.432 13.3008 27.5961 11.3203 11.75 11.25C10.2556 11.2297 8.79044 11.6655 7.55001 12.4992C6.53186 13.1874 5.69842 14.1153 5.12299 15.2011C4.54756 16.287 4.24778 17.4976 4.25001 18.7266V85.7812C4.25001 90.3141 7.47501 93.7336 11.75 93.7336C28.407 93.7336 45.1156 95.2898 55.1234 104.749C55.2603 104.879 55.4324 104.966 55.6183 104.999C55.8042 105.032 55.9957 105.01 56.169 104.935C56.3423 104.86 56.4897 104.736 56.593 104.578C56.6963 104.42 56.7509 104.235 56.75 104.046V25.0359C56.7503 24.5029 56.6362 23.976 56.4154 23.4908C56.1946 23.0056 55.8724 22.5734 55.4703 22.2234C53.1779 20.2637 50.6315 18.6223 47.9 17.3438ZM113.45 12.4922C112.209 11.6605 110.744 11.2272 109.25 11.25C93.4039 11.3203 81.568 13.2914 73.1 17.3438C70.3687 18.62 67.8215 20.2581 65.5274 22.2141C65.1261 22.5646 64.8045 22.9969 64.5842 23.482C64.3639 23.9671 64.2499 24.4938 64.25 25.0266V104.041C64.2499 104.223 64.3034 104.4 64.4037 104.551C64.504 104.703 64.6467 104.821 64.814 104.891C64.9812 104.961 65.1654 104.981 65.3436 104.947C65.5218 104.913 65.686 104.827 65.8156 104.7C71.832 98.7234 82.3906 93.7266 109.259 93.7289C111.249 93.7289 113.156 92.9387 114.563 91.5322C115.969 90.1257 116.759 88.218 116.759 86.2289V18.7289C116.762 17.4976 116.462 16.2845 115.884 15.1968C115.307 14.1091 114.471 13.1802 113.45 12.4922Z" fill="white"/>
</g>
</svg>
