<svg width="120" height="120" viewBox="0 0 120 120" fill="none" xmlns="http://www.w3.org/2000/svg">
<g id="ph:puzzle-piece-fill">
<path id="Vector" d="M77.7094 105H97.5C99.4891 105 101.397 104.21 102.803 102.803C104.21 101.397 105 99.4891 105 97.5V79.8516C104.997 79.2366 104.842 78.6318 104.55 78.0906C104.258 77.5493 103.838 77.0882 103.326 76.7478C102.813 76.4075 102.225 76.1983 101.613 76.1387C101.001 76.0791 100.384 76.171 99.8156 76.4062C98.4866 76.9548 97.0628 77.2367 95.625 77.2359C89.4234 77.2359 84.375 72.0328 84.375 65.6437C84.375 59.2547 89.4234 54.0516 95.625 54.0516C97.0628 54.0508 98.4866 54.3327 99.8156 54.8813C100.387 55.1177 101.008 55.2093 101.623 55.1479C102.238 55.0865 102.828 54.874 103.341 54.5292C103.854 54.1845 104.274 53.7183 104.564 53.1721C104.853 52.6259 105.003 52.0166 105 51.3984V33.75C105 31.7609 104.21 29.8532 102.803 28.4467C101.397 27.0402 99.4891 26.25 97.5 26.25H80.5219C80.592 25.6275 80.6264 25.0015 80.625 24.375C80.625 19.8995 78.8471 15.6072 75.6824 12.4426C72.5177 9.2779 68.2255 7.5 63.75 7.5C59.2745 7.5 54.9823 9.2779 51.8176 12.4426C48.6529 15.6072 46.875 19.8995 46.875 24.375C46.8736 25.0015 46.908 25.6275 46.9781 26.25H30C28.0109 26.25 26.1032 27.0402 24.6967 28.4467C23.2902 29.8532 22.5 31.7609 22.5 33.75V48.8531C21.8775 48.783 21.2515 48.7486 20.625 48.75C16.1495 48.75 11.8572 50.5279 8.69257 53.6926C5.5279 56.8573 3.75 61.1495 3.75 65.625C3.75 70.1005 5.5279 74.3927 8.69257 77.5574C11.8572 80.7221 16.1495 82.5 20.625 82.5C21.2515 82.5014 21.8775 82.467 22.5 82.3969V97.5C22.5 99.4891 23.2902 101.397 24.6967 102.803C26.1032 104.21 28.0109 105 30 105H49.7906" fill="white"/>
</g>
</svg>
