<svg width="340" height="340" viewBox="0 0 340 340" fill="none" xmlns="http://www.w3.org/2000/svg">
<mask id="path-1-inside-1_183_107" fill="white">
<path d="M120.395 293.425C119.195 296.368 120.605 299.74 123.597 300.816C151.839 310.982 182.679 311.713 211.453 302.807C242.063 293.332 268.441 273.537 286.092 246.794C303.743 220.052 311.575 188.016 308.254 156.146C304.933 124.276 290.665 94.543 267.879 72.0138C245.094 49.4846 215.202 35.5529 183.296 32.5924C151.391 29.6319 119.445 37.8259 92.9039 55.7782C66.3624 73.7304 46.8667 100.33 37.7387 131.045C29.1582 159.918 30.2378 190.747 40.7222 218.873C41.8326 221.852 45.2196 223.224 48.1496 221.991C51.0797 220.758 52.4422 217.387 51.3431 214.404C41.8852 188.737 40.9521 160.644 48.7738 134.325C57.1431 106.163 75.0183 81.7739 99.3537 65.3139C123.689 48.8538 152.979 41.3409 182.233 44.0553C211.486 46.7697 238.894 59.5434 259.785 80.2C280.676 100.857 293.759 128.118 296.804 157.339C299.849 186.56 292.668 215.933 276.484 240.453C260.3 264.973 236.114 283.122 208.049 291.81C181.82 299.928 153.718 299.313 127.946 290.146C124.951 289.08 121.595 290.481 120.395 293.425Z"/>
</mask>
<path d="M120.395 293.425C119.195 296.368 120.605 299.74 123.597 300.816C151.839 310.982 182.679 311.713 211.453 302.807C242.063 293.332 268.441 273.537 286.092 246.794C303.743 220.052 311.575 188.016 308.254 156.146C304.933 124.276 290.665 94.543 267.879 72.0138C245.094 49.4846 215.202 35.5529 183.296 32.5924C151.391 29.6319 119.445 37.8259 92.9039 55.7782C66.3624 73.7304 46.8667 100.33 37.7387 131.045C29.1582 159.918 30.2378 190.747 40.7222 218.873C41.8326 221.852 45.2196 223.224 48.1496 221.991C51.0797 220.758 52.4422 217.387 51.3431 214.404C41.8852 188.737 40.9521 160.644 48.7738 134.325C57.1431 106.163 75.0183 81.7739 99.3537 65.3139C123.689 48.8538 152.979 41.3409 182.233 44.0553C211.486 46.7697 238.894 59.5434 259.785 80.2C280.676 100.857 293.759 128.118 296.804 157.339C299.849 186.56 292.668 215.933 276.484 240.453C260.3 264.973 236.114 283.122 208.049 291.81C181.82 299.928 153.718 299.313 127.946 290.146C124.951 289.08 121.595 290.481 120.395 293.425Z" stroke="white" stroke-width="16" mask="url(#path-1-inside-1_183_107)"/>
<mask id="path-2-inside-2_183_107" fill="white">
<path d="M50.3467 226.928C47.4693 228.28 46.2213 231.714 47.6911 234.533C54.2011 247.019 62.5774 258.439 72.5306 268.399C74.7776 270.648 78.4284 270.489 80.5818 268.151C82.7352 265.812 82.5748 262.18 80.3363 259.923C71.4708 250.984 63.9836 240.776 58.121 229.634C56.6406 226.821 53.2242 225.577 50.3467 226.928Z"/>
</mask>
<path d="M50.3467 226.928C47.4693 228.28 46.2213 231.714 47.6911 234.533C54.2011 247.019 62.5774 258.439 72.5306 268.399C74.7776 270.648 78.4284 270.489 80.5818 268.151C82.7352 265.812 82.5748 262.18 80.3363 259.923C71.4708 250.984 63.9836 240.776 58.121 229.634C56.6406 226.821 53.2242 225.577 50.3467 226.928Z" stroke="white" stroke-width="16" mask="url(#path-2-inside-2_183_107)"/>
<mask id="path-3-inside-3_183_107" fill="white">
<path d="M84.7792 271.855C82.7263 274.283 83.0226 277.925 85.5331 279.875C86.8918 280.93 88.2701 281.961 89.6672 282.965C92.2486 284.82 95.8255 284.073 97.572 281.416C99.3185 278.76 98.5725 275.202 95.9981 273.337C94.9789 272.598 93.9707 271.845 92.974 271.076C90.4562 269.136 86.8321 269.428 84.7792 271.855Z"/>
</mask>
<path d="M84.7792 271.855C82.7263 274.283 83.0226 277.925 85.5331 279.875C86.8918 280.93 88.2701 281.961 89.6672 282.965C92.2486 284.82 95.8255 284.073 97.572 281.416C99.3185 278.76 98.5725 275.202 95.9981 273.337C94.9789 272.598 93.9707 271.845 92.974 271.076C90.4562 269.136 86.8321 269.428 84.7792 271.855Z" stroke="white" stroke-width="16" mask="url(#path-3-inside-3_183_107)"/>
<mask id="path-4-inside-4_183_107" fill="white">
<path d="M101.949 284.174C100.308 286.896 101.178 290.445 103.966 291.972C105.475 292.799 106.999 293.597 108.538 294.367C111.381 295.789 114.794 294.484 116.097 291.584C117.4 288.684 116.099 285.289 113.261 283.856C112.138 283.289 111.023 282.705 109.917 282.104C107.123 280.588 103.591 281.452 101.949 284.174Z"/>
</mask>
<path d="M101.949 284.174C100.308 286.896 101.178 290.445 103.966 291.972C105.475 292.799 106.999 293.597 108.538 294.367C111.381 295.789 114.794 294.484 116.097 291.584C117.4 288.684 116.099 285.289 113.261 283.856C112.138 283.289 111.023 282.705 109.917 282.104C107.123 280.588 103.591 281.452 101.949 284.174Z" stroke="white" stroke-width="16" mask="url(#path-4-inside-4_183_107)"/>
<mask id="path-5-inside-5_183_107" fill="white">
<path d="M257.532 131.185C261.559 129.366 263.375 124.61 261.251 120.736C254.578 108.566 245.511 97.8386 234.569 89.2138C223.626 80.5889 211.077 74.2795 197.686 70.6341C193.422 69.4736 189.222 72.3513 188.394 76.6914L186.733 85.3998C185.905 89.7399 188.769 93.8896 193.002 95.154C202.483 97.9854 211.368 102.588 219.176 108.742C226.985 114.897 233.536 122.461 238.504 131.017C240.722 134.838 245.426 136.654 249.453 134.835L257.532 131.185Z"/>
</mask>
<path d="M257.532 131.185C261.559 129.366 263.375 124.61 261.251 120.736C254.578 108.566 245.511 97.8386 234.569 89.2138C223.626 80.5889 211.077 74.2795 197.686 70.6341C193.422 69.4736 189.222 72.3513 188.394 76.6914L186.733 85.3998C185.905 89.7399 188.769 93.8896 193.002 95.154C202.483 97.9854 211.368 102.588 219.176 108.742C226.985 114.897 233.536 122.461 238.504 131.017C240.722 134.838 245.426 136.654 249.453 134.835L257.532 131.185Z" stroke="white" stroke-width="20" mask="url(#path-5-inside-5_183_107)"/>
<mask id="path-6-inside-6_183_107" fill="white">
<path d="M265.657 178.591C270.059 178.965 273.964 175.697 273.997 171.279C274.076 160.828 272.571 150.424 269.534 140.424C268.25 136.196 263.579 134.169 259.463 135.775L251.209 138.997C247.093 140.603 245.101 145.236 246.282 149.493C248.059 155.905 249.016 162.518 249.128 169.171C249.203 173.588 252.425 177.466 256.828 177.84L265.657 178.591Z"/>
</mask>
<path d="M265.657 178.591C270.059 178.965 273.964 175.697 273.997 171.279C274.076 160.828 272.571 150.424 269.534 140.424C268.25 136.196 263.579 134.169 259.463 135.775L251.209 138.997C247.093 140.603 245.101 145.236 246.282 149.493C248.059 155.905 249.016 162.518 249.128 169.171C249.203 173.588 252.425 177.466 256.828 177.84L265.657 178.591Z" stroke="white" stroke-width="20" mask="url(#path-6-inside-6_183_107)"/>
<path d="M67.5593 173.095C67.4798 172.476 67.6942 171.855 68.1389 171.416L79.8577 159.862C81.2212 158.518 80.0982 156.211 78.199 156.455L67.6147 157.813C66.5191 157.953 65.517 157.179 65.3764 156.084L64.5796 149.874C64.439 148.779 65.2132 147.777 66.3088 147.636L104.119 142.784C105.214 142.644 106.217 143.418 106.357 144.514L107.154 150.723C107.294 151.818 106.52 152.82 105.425 152.961L94.9689 154.303C93.0687 154.546 92.5656 157.065 94.2261 158.02L108.335 166.137C108.877 166.449 109.242 166.996 109.322 167.616L110.205 174.497C110.417 176.155 108.623 177.327 107.19 176.465L89.5337 165.847C88.7405 165.37 87.7237 165.5 87.0755 166.16L71.9159 181.609C70.7462 182.8 68.7172 182.119 68.5047 180.462L67.5593 173.095Z" fill="white"/>
<path d="M95.445 231.123C95.9886 230.46 96.0492 229.524 95.5956 228.797L88.7967 217.891C88.3432 217.163 87.4764 216.806 86.6419 217.002L81.7874 218.143C80.9528 218.339 80.0861 217.982 79.6325 217.254L76.2175 211.776C75.4839 210.599 76.1412 209.052 77.4972 208.762L117.143 200.3C117.966 200.124 118.812 200.483 119.257 201.198L124.058 208.898C124.503 209.612 124.453 210.53 123.933 211.192L98.8807 243.063C98.0239 244.153 96.3447 244.062 95.6111 242.885L92.1326 237.305C91.6791 236.578 91.7397 235.642 92.2832 234.979L95.445 231.123ZM100.203 221.217C100.928 222.379 102.579 222.486 103.447 221.427L108.234 215.591C109.449 214.109 108.087 211.932 106.223 212.377L98.8895 214.129C97.5608 214.447 96.9344 215.973 97.6571 217.133L100.203 221.217Z" fill="white"/>
<path d="M168.998 236.524C170.027 236.925 170.535 238.085 170.134 239.114L168.6 243.045C168.198 244.074 167.038 244.583 166.009 244.181L159.339 241.578C158.31 241.177 157.151 241.685 156.749 242.714L145.879 270.568C145.478 271.597 144.318 272.106 143.289 271.704L137.457 269.429C136.428 269.027 135.92 267.867 136.321 266.838L147.191 238.984C147.593 237.955 147.084 236.795 146.055 236.394L139.385 233.791C138.356 233.389 137.847 232.23 138.249 231.201L139.783 227.269C140.185 226.24 141.344 225.732 142.373 226.133L168.998 236.524Z" fill="white"/>
<path d="M216.558 260.985C216.012 260.325 215.105 260.086 214.304 260.392L202.297 264.974C201.496 265.279 200.979 266.062 201.012 266.918L201.201 271.902C201.234 272.758 200.717 273.54 199.916 273.846L193.885 276.148C192.589 276.642 191.196 275.7 191.172 274.314L190.467 233.781C190.452 232.939 190.966 232.178 191.753 231.878L200.23 228.643C201.017 228.343 201.908 228.568 202.458 229.205L228.936 259.902C229.841 260.952 229.43 262.583 228.134 263.077L221.991 265.421C221.19 265.727 220.284 265.488 219.737 264.828L216.558 260.985ZM207.749 254.416C209.028 253.928 209.449 252.328 208.577 251.273L203.766 245.456C202.545 243.979 200.147 244.899 200.226 246.814L200.54 254.347C200.597 255.712 201.975 256.62 203.252 256.132L207.749 254.416Z" fill="white"/>
<mask id="path-11-inside-7_183_107" fill="white">
<path d="M92.1314 315.067C90.7325 317.673 91.7084 320.928 94.3571 322.244C132.804 341.348 177.132 345.224 218.412 332.961C261.407 320.188 297.612 290.942 319.139 251.594C340.666 212.246 345.771 165.985 333.342 122.89C320.913 79.7946 291.956 43.3575 252.781 21.5169C213.606 -0.323692 167.388 -5.79779 124.195 6.28723C81.0016 18.3722 44.3346 47.037 22.1821 86.0364C0.0296725 125.036 -5.81304 171.209 5.92695 214.498C17.1989 256.06 43.8023 291.728 80.2664 314.388C82.7785 315.949 86.0605 315.068 87.5417 312.508C89.023 309.948 88.1422 306.679 85.6334 305.113C51.6139 283.872 26.7964 250.529 16.2642 211.694C5.26384 171.133 10.7384 127.869 31.4952 91.3265C52.252 54.7841 86.6089 27.9254 127.081 16.6017C167.552 5.27813 210.859 10.4073 247.566 30.8719C284.273 51.3364 311.405 85.4779 323.051 125.858C334.697 166.238 329.914 209.584 309.743 246.453C289.572 283.322 255.648 310.726 215.362 322.694C176.79 334.153 135.38 330.572 99.4254 312.802C96.7739 311.491 93.5302 312.461 92.1314 315.067Z"/>
</mask>
<path d="M92.1314 315.067C90.7325 317.673 91.7084 320.928 94.3571 322.244C132.804 341.348 177.132 345.224 218.412 332.961C261.407 320.188 297.612 290.942 319.139 251.594C340.666 212.246 345.771 165.985 333.342 122.89C320.913 79.7946 291.956 43.3575 252.781 21.5169C213.606 -0.323692 167.388 -5.79779 124.195 6.28723C81.0016 18.3722 44.3346 47.037 22.1821 86.0364C0.0296725 125.036 -5.81304 171.209 5.92695 214.498C17.1989 256.06 43.8023 291.728 80.2664 314.388C82.7785 315.949 86.0605 315.068 87.5417 312.508C89.023 309.948 88.1422 306.679 85.6334 305.113C51.6139 283.872 26.7964 250.529 16.2642 211.694C5.26384 171.133 10.7384 127.869 31.4952 91.3265C52.252 54.7841 86.6089 27.9254 127.081 16.6017C167.552 5.27813 210.859 10.4073 247.566 30.8719C284.273 51.3364 311.405 85.4779 323.051 125.858C334.697 166.238 329.914 209.584 309.743 246.453C289.572 283.322 255.648 310.726 215.362 322.694C176.79 334.153 135.38 330.572 99.4254 312.802C96.7739 311.491 93.5302 312.461 92.1314 315.067Z" stroke="white" stroke-width="12" mask="url(#path-11-inside-7_183_107)"/>
</svg>
