<svg width="120" height="120" viewBox="0 0 120 120" fill="none" xmlns="http://www.w3.org/2000/svg">
<g id="bi:pen-fill">
<path id="Vector" d="M101.235 5.96253L102.353 4.84503C103.194 4.0044 104.192 3.33768 105.291 2.88293C106.39 2.42817 107.567 2.19429 108.756 2.19464C109.946 2.19499 111.123 2.42956 112.222 2.88496C113.32 3.34035 114.318 4.00766 115.159 4.84878C115.999 5.68989 116.666 6.68835 117.121 7.78713C117.576 8.88591 117.81 10.0635 117.809 11.2527C117.809 12.4418 117.574 13.6193 117.119 14.7178C116.664 15.8163 115.996 16.8144 115.155 17.655L114.038 18.765C115.949 20.909 116.968 23.703 116.886 26.5742C116.804 29.4455 115.626 32.1765 113.595 34.2075L36.4051 111.405C35.9225 111.885 35.3185 112.225 34.6576 112.388L4.65759 119.888C4.02978 120.044 3.3722 120.035 2.74878 119.862C2.12536 119.689 1.5573 119.358 1.09981 118.9C0.642332 118.443 0.310991 117.875 0.138 117.251C-0.0349902 116.628 -0.0437457 115.97 0.112585 115.343L7.61259 85.3425C7.77668 84.6843 8.11624 84.083 8.59509 83.6025L80.9101 11.2875C80.1868 10.7785 79.307 10.5415 78.4259 10.6183C77.5448 10.6952 76.7193 11.081 76.0951 11.7075L51.4051 36.405C51.0564 36.7537 50.6425 37.0303 50.187 37.219C49.7314 37.4076 49.2432 37.5048 48.7501 37.5048C48.257 37.5048 47.7688 37.4076 47.3132 37.219C46.8577 37.0303 46.4437 36.7537 46.0951 36.405C45.7464 36.0564 45.4699 35.6424 45.2812 35.1869C45.0925 34.7314 44.9953 34.2431 44.9953 33.75C44.9953 33.2569 45.0925 32.7687 45.2812 32.3132C45.4699 31.8576 45.7464 31.4437 46.0951 31.095L70.8001 6.40503C72.8324 4.37264 75.5655 3.19518 78.4386 3.11429C81.3116 3.0334 84.1066 4.05521 86.2501 5.97003C88.3108 4.12832 90.9774 3.10962 93.7411 3.10823C96.5049 3.10685 99.1725 4.12288 101.235 5.96253Z" fill="#257180"/>
</g>
</svg>
