<svg width="120" height="120" viewBox="0 0 120 120" fill="none" xmlns="http://www.w3.org/2000/svg">
<g id="ion:book">
<path id="Vector" d="M47.4 17.3438C38.932 13.3008 27.0961 11.3203 11.25 11.25C9.75556 11.2297 8.29044 11.6655 7.05001 12.4992C6.03186 13.1874 5.19842 14.1153 4.62299 15.2011C4.04756 16.287 3.74778 17.4976 3.75001 18.7266V85.7812C3.75001 90.3141 6.97501 93.7336 11.25 93.7336C27.907 93.7336 44.6156 95.2898 54.6234 104.749C54.7603 104.879 54.9324 104.966 55.1183 104.999C55.3042 105.032 55.4957 105.01 55.669 104.935C55.8423 104.86 55.9897 104.736 56.093 104.578C56.1963 104.42 56.2509 104.235 56.25 104.046V25.0359C56.2503 24.5029 56.1362 23.976 55.9154 23.4908C55.6946 23.0056 55.3724 22.5734 54.9703 22.2234C52.6779 20.2637 50.1315 18.6223 47.4 17.3438ZM112.95 12.4922C111.709 11.6605 110.244 11.2272 108.75 11.25C92.9039 11.3203 81.068 13.2914 72.6 17.3438C69.8687 18.62 67.3215 20.2581 65.0274 22.2141C64.6261 22.5646 64.3045 22.9969 64.0842 23.482C63.8639 23.9671 63.7499 24.4938 63.75 25.0266V104.041C63.7499 104.223 63.8034 104.4 63.9037 104.551C64.004 104.703 64.1467 104.821 64.314 104.891C64.4812 104.961 64.6654 104.981 64.8436 104.947C65.0218 104.913 65.186 104.827 65.3156 104.7C71.332 98.7234 81.8906 93.7266 108.759 93.7289C110.749 93.7289 112.656 92.9387 114.063 91.5322C115.469 90.1257 116.259 88.218 116.259 86.2289V18.7289C116.262 17.4976 115.962 16.2845 115.384 15.1968C114.807 14.1091 113.971 13.1802 112.95 12.4922Z" fill="#257180"/>
</g>
</svg>
