<svg width="121" height="120" viewBox="0 0 121 120" fill="none" xmlns="http://www.w3.org/2000/svg">
<g id="bi:pen-fill" clip-path="url(#clip0_195_247)">
<path id="Vector" d="M101.735 5.9625L102.853 4.845C103.694 4.00437 104.692 3.33765 105.791 2.8829C106.89 2.42814 108.067 2.19426 109.256 2.19461C110.446 2.19496 111.623 2.42953 112.722 2.88493C113.82 3.34032 114.818 4.00763 115.659 4.84875C116.499 5.68986 117.166 6.68832 117.621 7.7871C118.076 8.88588 118.31 10.0635 118.309 11.2526C118.309 12.4418 118.074 13.6193 117.619 14.7178C117.164 15.8163 116.496 16.8144 115.655 17.655L114.538 18.765C116.449 20.909 117.468 23.7029 117.386 26.5742C117.304 29.4455 116.126 32.1765 114.095 34.2075L36.9051 111.405C36.4225 111.885 35.8185 112.225 35.1576 112.387L5.15759 119.887C4.52978 120.044 3.8722 120.035 3.24878 119.862C2.62536 119.689 2.0573 119.358 1.59981 118.9C1.14233 118.443 0.810991 117.875 0.638 117.251C0.46501 116.628 0.456254 115.97 0.612585 115.342L8.11259 85.3425C8.27668 84.6843 8.61624 84.083 9.09509 83.6025L81.4101 11.2875C80.6868 10.7785 79.807 10.5414 78.9259 10.6183C78.0448 10.6952 77.2193 11.0809 76.5951 11.7075L51.9051 36.405C51.5564 36.7537 51.1425 37.0302 50.687 37.2189C50.2314 37.4076 49.7432 37.5047 49.2501 37.5047C48.757 37.5047 48.2688 37.4076 47.8132 37.2189C47.3577 37.0302 46.9437 36.7537 46.5951 36.405C46.2464 36.0563 45.9699 35.6424 45.7812 35.1869C45.5925 34.7313 45.4953 34.2431 45.4953 33.75C45.4953 33.2569 45.5925 32.7687 45.7812 32.3131C45.9699 31.8576 46.2464 31.4437 46.5951 31.095L71.3001 6.405C73.3324 4.37261 76.0655 3.19515 78.9386 3.11426C81.8116 3.03337 84.6066 4.05518 86.7501 5.97C88.8108 4.12829 91.4774 3.10959 94.2411 3.1082C97.0049 3.10682 99.6725 4.12285 101.735 5.9625Z" fill="white"/>
</g>
<defs>
<clipPath id="clip0_195_247">
<rect width="120" height="120" fill="white" transform="translate(0.5)"/>
</clipPath>
</defs>
</svg>
